# xmcd
#
# Track frame offsets: 
#        150
#        14838
#        30844
#        49763
#        68181
#        90337
#        108344
#        120847
#        144304
#        163076
#        183675
#        203260
#        215787
#
# Disc length: 3170 seconds
#
# Revision: 0
# Processed by: cddbd v1.5.2PL0 Copyright (c) Steve Scherf et al.
# Submitted via: ExactAudioCopy v0.95b4
#
DISCID=aa0c600d
DTITLE=Miles From Nowhere - Bloodline
DYEAR=2007
DGENRE=
TTITLE0=Bloodline
TTITLE1=November
TTITLE2=When I Get Mean
TTITLE3=Stand
TTITLE4=Mona Sue
TTITLE5=Faces
TTITLE6=I Can't Win
TTITLE7=Give Me The Road
TTITLE8=Queen Of California
TTITLE9=Hard Livin' Man
TTITLE10=Comin' Home
TTITLE11=Stillhouse
TTITLE12=Bonus Track
EXTD=
EXTT0=
EXTT1=
EXTT2=
EXTT3=
EXTT4=
EXTT5=
EXTT6=
EXTT7=
EXTT8=
EXTT9=
EXTT10=
EXTT11=
EXTT12=
PLAYORDER=
